<svg width="24" height="24" viewBox="0 0 24 24" fill="none" xmlns="http://www.w3.org/2000/svg">
  <path d="M14 2H6C4.9 2 4 2.9 4 4v16c0 1.1.9 2 2 2h12c1.1 0 2-.9 2-2V8l-6-6z" fill="#5B8DEF" opacity="0.2"/>
  <path d="M14 2H6C4.9 2 4 2.9 4 4v16c0 1.1.9 2 2 2h12c1.1 0 2-.9 2-2V8l-6-6z" stroke="#5B8DEF" stroke-width="1.5" fill="none"/>
  <path d="M14 2v6h6" stroke="#5B8DEF" stroke-width="1.5" fill="none"/>
  <circle cx="11" cy="14" r="3" stroke="#5B8DEF" stroke-width="1.5" fill="none"/>
  <path d="M13.5 16.5L16 19" stroke="#5B8DEF" stroke-width="1.5" stroke-linecap="round"/>
</svg>
